<?xml version="1.0" encoding="utf-8"?>
<!-- Generator: Adobe Illustrator 24.3.0, SVG Export Plug-In . SVG Version: 6.00 Build 0)  -->
<svg version="1.1" id="Layer_1" xmlns="http://www.w3.org/2000/svg" xmlns:xlink="http://www.w3.org/1999/xlink" x="0px" y="0px"
	 viewBox="0 0 472.5 221.4" style="enable-background:new 0 0 472.5 221.4;" xml:space="preserve">
<style type="text/css">
	.st0{fill:#FFFFFF;}
	.st1{fill:url(#SVGID_1_);}
</style>
<g>
	<path class="st0" d="M158.8,126.8c3-5.4,7.5-9.9,12.9-12.9c5.6-3.1,12-4.7,18.4-4.6c7.4-0.2,14.7,2,20.9,6.1
		c6,4.1,10.4,10,12.5,16.9h-16.4c-1.4-3.2-3.9-5.9-6.9-7.6c-3.1-1.7-6.7-2.6-10.2-2.6c-3.9-0.1-7.7,0.9-11.1,2.9
		c-3.2,2-5.9,4.8-7.5,8.2c-3.6,7.9-3.6,16.9,0,24.8c1.7,3.4,4.3,6.3,7.5,8.3c3.3,2,7.2,3,11.1,2.9c3.6,0.1,7.1-0.8,10.2-2.6
		c3-1.8,5.4-4.5,6.9-7.7h16.4c-2.1,6.9-6.5,12.9-12.5,17c-6.2,4.1-13.5,6.2-21,6.1c-6.4,0.1-12.8-1.5-18.4-4.6
		c-5.4-3-9.9-7.5-12.9-12.9C152.5,152.7,152.5,138.6,158.8,126.8L158.8,126.8z"/>
	<path class="st0" d="M257.2,126.6c3.1-1.7,6.6-2.6,10.1-2.6v15h-3.8c-4.5,0-7.9,1.1-10.1,3.2c-2.3,2.1-3.4,5.8-3.4,11v28.1h-14.3
		v-56.5h14.3v8.8C251.8,130.7,254.3,128.3,257.2,126.6z"/>
	<path class="st0" d="M329,157.4h-41.3c0.1,3.6,1.7,7.1,4.3,9.6c2.5,2.3,5.9,3.6,9.3,3.5c5.3,0,9.1-2.3,11.3-6.8H328
		c-1.6,5.4-4.9,10.1-9.4,13.4c-4.6,3.5-10.3,5.2-17,5.2c-5.1,0.1-10.1-1.2-14.6-3.6c-4.3-2.4-7.8-5.9-10.1-10.2
		c-2.5-4.7-3.7-10-3.6-15.3c-0.1-5.3,1.1-10.6,3.6-15.4c2.3-4.3,5.7-7.8,10-10.2c9.2-4.7,20-4.7,29.2-0.1c4.2,2.2,7.6,5.7,9.9,9.8
		c2.4,4.5,3.6,9.5,3.5,14.6C329.5,153.7,329.3,155.6,329,157.4z M314.7,147.8c0.1-3.4-1.4-6.6-4-8.8c-2.6-2.2-6-3.4-9.5-3.3
		c-3.3-0.1-6.5,1.1-8.9,3.2c-2.5,2.3-4.1,5.5-4.4,8.9L314.7,147.8z"/>
	<path class="st0" d="M384.4,114.6c5.5,2.8,10.1,7.1,13.2,12.5c3.2,5.8,4.8,12.2,4.6,18.8c0.1,6.5-1.5,13-4.6,18.7
		c-3.1,5.3-7.7,9.6-13.2,12.4c-6.1,3-12.9,4.5-19.7,4.4h-24.9v-71.1h24.9C371.6,110,378.3,111.5,384.4,114.6z M381.5,163.1
		c4.1-4.1,6.1-9.8,6.1-17.2c0-7.4-2-13.2-6.1-17.4c-4.1-4.2-9.8-6.3-17.3-6.3h-10.1v47h10.1C371.7,169.2,377.5,167.2,381.5,163.1z"
		/>
	<path class="st0" d="M451.5,167.8h-28.3l-4.7,13.6h-15l25.6-71.2h16.6l25.6,71.2h-15.1L451.5,167.8z M447.6,156.4l-10.3-29.8
		L427,156.4H447.6z"/>
	
		<linearGradient id="SVGID_1_" gradientUnits="userSpaceOnUse" x1="68.0591" y1="99.8608" x2="82.2091" y2="245.6008" gradientTransform="matrix(1 0 0 -1 0 273.8812)">
		<stop  offset="0" style="stop-color:#4A29FF"/>
		<stop  offset="1" style="stop-color:#33B8FF"/>
	</linearGradient>
	<path class="st1" d="M156.8,59.7c-0.2-0.3-0.5-0.6-0.8-0.8c-23.3-16.6-54.6-16.9-78.2-0.6c-1.4-1.1-2.8-2.3-4.2-3.6
		c-11.9-11-18.8-26.4-19.4-42.5c-0.1-1.8-0.1-3.5,0-5.3C54.4,5,52.9,3.3,51,3.2c-0.8-0.1-1.7,0.2-2.3,0.7
		c-10.5,7.8-18.4,18.5-23,30.7c-3.9-5.1-6.9-10.8-9-16.9c-0.6-1.8-2.6-2.8-4.4-2.2c-0.8,0.3-1.5,0.9-1.9,1.6
		c-18,33-5.8,74.3,27.1,92.3c3.5,1.9,7.1,3.5,10.9,4.7c0,0.8,0,1.6,0,2.4c1.2,33.2,25.2,60.8,57.1,65.7c0.2,0,0.4,0,0.5,0
		c1.9,0,3.5-1.6,3.5-3.5c0-1.1-0.5-2.2-1.5-2.8c-14.9-10.7-24.1-28.7-24.8-48.3c-0.1-3.8,0.1-7.6,0.7-11.4
		c22.1-4.6,40.4-19.8,49.1-40.6c8.3-2.2,16.1-6,23-11.2C157.5,63.4,157.8,61.2,156.8,59.7z M114.4,53.3c5.6-0.2,11.2,0.4,16.7,1.7
		c-0.4,5.1-1.5,10-3.2,14.8c-15,3.2-30.7,0.6-43.9-7.3C93.1,56.8,103.6,53.6,114.4,53.3z M28.4,60.5c-0.1-4,0.1-7.9,0.8-11.9
		c11,9.8,24.8,15.9,39.5,17.2c-0.7,0.7-1.3,1.3-2,2c-9.4,10.1-15.6,22.8-17.6,36.4C36.5,93.1,29,77.3,28.4,60.5L28.4,60.5z
		 M47.4,14.2c1,16.9,8.3,32.8,20.5,44.6c-14-1.6-27-8-36.8-18C34.1,30.6,39.7,21.5,47.4,14.2L47.4,14.2z M9.2,51.8
		c-0.3-8.3,1.1-16.5,4.1-24.3c2.6,5.5,6,10.6,10,15.1c-4.8,20-0.2,41.2,12.4,57.5C19.7,89.2,9.8,71.2,9.2,51.8z M76.2,128
		c0.5,16,6.4,31.4,16.7,43.6c-21.6-8.9-36.7-30.4-37.6-55.2v-0.2c4.8,1.1,9.8,1.6,14.8,1.6c0.8,0,1.6,0,2.4,0
		c1.4-0.1,2.8-0.2,4.2-0.3C76.3,121,76.1,124.5,76.2,128z M72.3,110.8c-5.6,0.2-11.2-0.4-16.7-1.8c1.1-13.6,6.9-26.4,16.2-36.4
		c1.9-2,4-4,6.1-5.7c13.8,9.1,30.3,12.8,46.7,10.6C114.5,97.2,94.5,110,72.3,110.8L72.3,110.8z M135.8,67.6c0.9-3.4,1.6-7,2-10.5
		c3.4,1.3,6.7,2.9,9.9,4.8C144,64.2,140,66.1,135.8,67.6L135.8,67.6z"/>
</g>
</svg>
