  <svg id="Layer_1" data-name="Layer 1" xmlns="http://www.w3.org/2000/svg" xmlns:xlink="http://www.w3.org/1999/xlink" viewBox="0 0 969.03 283.05"><defs><style>.cls-1{fill:#fff;}.cls-2{fill:url(#New_Gradient_Swatch_11);}</style><linearGradient id="New_Gradient_Swatch_11" x1="249.62" y1="220.64" x2="263.77" y2="74.9" gradientUnits="userSpaceOnUse"><stop offset="0" stop-color="#4a29ff"/><stop offset="1" stop-color="#33b8ff"/></linearGradient></defs><path class="cls-1" d="M340.24,173.45a33.8,33.8,0,0,1,12.94-12.94,36.67,36.67,0,0,1,18.4-4.64,36.26,36.26,0,0,1,20.9,6.11A31.94,31.94,0,0,1,405,178.9H388.6a17,17,0,0,0-6.88-7.64,20.16,20.16,0,0,0-10.24-2.55,21,21,0,0,0-11.06,2.91,19.77,19.77,0,0,0-7.54,8.2,29.87,29.87,0,0,0,0,24.82,19.75,19.75,0,0,0,7.54,8.26,21,21,0,0,0,11.06,2.9,19.79,19.79,0,0,0,10.24-2.6,17.25,17.25,0,0,0,6.88-7.69H405a31.77,31.77,0,0,1-12.48,17,36.38,36.38,0,0,1-20.95,6.06,36.77,36.77,0,0,1-18.4-4.63A33.9,33.9,0,0,1,340.24,211a39.57,39.57,0,0,1,0-37.56Z"/><path class="cls-1" d="M438.7,173.2a20,20,0,0,1,10.14-2.55v15h-3.77q-6.72,0-10.14,3.16t-3.41,11v28.13H417.25V171.46h14.27v8.77A20.06,20.06,0,0,1,438.7,173.2Z"/><path class="cls-1" d="M510.51,204H469.23a14,14,0,0,0,4.28,9.58,13.21,13.21,0,0,0,9.28,3.47q7.95,0,11.31-6.83h15.39a25.69,25.69,0,0,1-9.38,13.4q-6.93,5.25-17,5.25a29.43,29.43,0,0,1-14.62-3.62A25.46,25.46,0,0,1,458.37,215a31.44,31.44,0,0,1-3.62-15.29,31.91,31.91,0,0,1,3.57-15.39,24.92,24.92,0,0,1,10-10.2,32.14,32.14,0,0,1,29.21-.1,24.38,24.38,0,0,1,9.88,9.84,29.7,29.7,0,0,1,3.52,14.62A33.92,33.92,0,0,1,510.51,204Zm-14.37-9.58a11.34,11.34,0,0,0-4-8.82,14.07,14.07,0,0,0-9.48-3.31,12.93,12.93,0,0,0-8.91,3.21,14.06,14.06,0,0,0-4.44,8.92Z"/><path class="cls-1" d="M565.91,161.17a31.32,31.32,0,0,1,13.15,12.48,37.26,37.26,0,0,1,4.64,18.81,36.68,36.68,0,0,1-4.64,18.71,31.52,31.52,0,0,1-13.15,12.38,42.51,42.51,0,0,1-19.72,4.38H521.32V156.79h24.87A42.51,42.51,0,0,1,565.91,161.17ZM563,209.69q6.12-6.12,6.12-17.23T563,175.08q-6.11-6.27-17.32-6.27h-10.1v47h10.1Q556.89,215.8,563,209.69Z"/><path class="cls-1" d="M632.93,214.38H604.59l-4.69,13.55h-15l25.58-71.25h16.62l25.58,71.25H637.62ZM629.06,203l-10.3-29.76L608.47,203Z"/><path class="cls-2" d="M338.22,106.31a3.7,3.7,0,0,0-.79-.79,68.13,68.13,0,0,0-78.17-.64c-1.44-1.12-2.84-2.32-4.19-3.58a60.67,60.67,0,0,1-19.35-42.55c-.06-1.75-.05-3.51,0-5.25a3.48,3.48,0,0,0-5.57-3,68.08,68.08,0,0,0-23,30.74,60,60,0,0,1-9-16.9,3.49,3.49,0,0,0-6.36-.55,68,68,0,0,0,38,97c0,.8,0,1.61,0,2.42C231,196.38,255,224,286.88,228.9a3.23,3.23,0,0,0,.53,0,3.48,3.48,0,0,0,2-6.31c-14.85-10.69-24.12-28.73-24.79-48.26a61.88,61.88,0,0,1,.69-11.39,68.52,68.52,0,0,0,49.14-40.61,67.56,67.56,0,0,0,23-11.21A3.49,3.49,0,0,0,338.22,106.31Zm-42.4-6.43a61.07,61.07,0,0,1,16.69,1.71,60,60,0,0,1-3.19,14.84,61.19,61.19,0,0,1-43.85-7.29A60.6,60.6,0,0,1,295.82,99.88Zm-85.92,7.24a60.91,60.91,0,0,1,.77-11.87,68.63,68.63,0,0,0,39.48,17.23c-.66.65-1.33,1.31-2,2a67.63,67.63,0,0,0-17.59,36.41A61.22,61.22,0,0,1,209.9,107.12Zm18.94-46.33a67.75,67.75,0,0,0,20.49,44.6,61.69,61.69,0,0,1-36.84-18A61.15,61.15,0,0,1,228.84,60.79ZM190.63,98.45a61.14,61.14,0,0,1,4.12-24.28,67.68,67.68,0,0,0,10,15.12,67.64,67.64,0,0,0,12.45,57.45A61,61,0,0,1,190.63,98.45Zm67.07,76.16a70.71,70.71,0,0,0,16.74,43.63c-21.6-8.94-36.72-30.36-37.57-55.25v-.23a67.85,67.85,0,0,0,14.76,1.64c.78,0,1.57,0,2.36,0,1.4-.05,2.79-.16,4.18-.29A68.65,68.65,0,0,0,257.7,174.61Zm-3.95-17.22a60.63,60.63,0,0,1-16.69-1.75,60.62,60.62,0,0,1,16.21-36.41,63.5,63.5,0,0,1,6.12-5.73,67.92,67.92,0,0,0,46.66,10.56A61.32,61.32,0,0,1,253.75,157.39Zm63.56-43.21a66.12,66.12,0,0,0,2-10.51,61.45,61.45,0,0,1,9.88,4.76A60.09,60.09,0,0,1,317.31,114.18Z"/></svg>