<svg width="226" height="160" viewBox="0 0 226 160" fill="none" xmlns="http://www.w3.org/2000/svg">
<path d="M94.5421 131.781C79.0914 129.85 64.7222 124.983 51.8209 115.944C50.4303 114.94 47.3402 113.241 45.3316 116.099C43.2457 119.266 45.7951 121.893 47.2629 122.82C55.1428 127.687 63.4089 131.936 71.675 136.494C68.1986 145.532 65.8038 146.923 56.3016 144.451C44.559 141.438 33.0482 137.421 24.6276 128.228C22.1555 125.524 20.3014 120.966 20.3787 117.412C21.2284 89.9099 27.9495 63.7209 38.765 38.459C41.9324 31.0427 46.7221 25.1714 54.4475 22.5448C62.8681 19.6864 72.3703 16.9053 80.9455 14.5877C84.3446 13.6606 83.2631 15.9782 83.5721 16.6735C76.851 19.1456 70.13 21.4632 63.4862 24.0898C60.0097 25.4804 56.5333 27.0255 53.675 29.3431C51.9754 30.6564 49.2715 32.356 50.6621 35.8324C52.6707 39.4633 56.0698 37.4547 57.7694 36.5277C71.057 29.1113 85.3489 25.0169 100.336 23.3946C104.662 22.931 108.911 22.6993 113.16 22.6993V14.5877C106.362 14.5877 99.5636 14.5877 92.5335 14.5877C90.8339 9.95244 90.4477 3.30863 82.8768 5.39448C71.057 8.56188 59.3917 11.961 47.9582 16.1327C40.2328 18.9139 35.1341 24.9396 31.8122 32.5877C19.6834 60.0128 12.4988 88.5193 11.031 118.571C10.722 124.751 12.7305 129.386 16.825 133.635C26.5589 143.756 38.8423 148.932 52.0526 152.408C68.6622 156.812 68.6622 156.734 78.4734 143.138C78.6279 142.983 78.7051 142.829 78.8596 142.597C80.6365 139.12 83.1858 138.966 87.0485 139.198C95.7009 139.816 104.431 140.82 113.083 141.052V133.017C106.98 133.017 100.8 132.554 94.5421 131.781Z" fill="white"/>
<path d="M83.2636 66.9654C72.6026 67.1971 63.8729 77.2401 64.0274 88.9827C64.1819 101.034 73.3751 111.077 84.1906 110.923C94.6198 110.768 103.736 100.571 103.813 88.9827C103.813 76.6993 94.5426 66.7336 83.2636 66.9654ZM83.7271 102.27C77.7013 102.193 72.6798 95.8582 72.7571 88.6737C72.8343 81.7981 77.9331 75.695 83.6498 75.6178C89.5984 75.5405 95.0061 81.7981 95.0061 88.9054C95.0834 95.8582 89.5984 102.348 83.7271 102.27Z" fill="white"/>
<path d="M131.315 131.781C146.766 129.85 161.135 124.983 174.036 115.944C175.427 114.94 178.517 113.241 180.526 116.099C182.611 119.266 180.062 121.893 178.594 122.82C170.714 127.687 162.448 131.936 154.182 136.494C157.658 145.532 160.053 146.923 169.556 144.451C181.298 141.438 192.809 137.421 201.229 128.228C203.702 125.524 205.556 120.966 205.478 117.412C204.629 89.9099 197.908 63.7209 187.092 38.459C183.925 31.0427 179.135 25.1714 171.41 22.5448C162.989 19.6864 153.487 16.9053 144.912 14.5877C141.512 13.6606 142.594 15.9782 142.285 16.6735C149.006 19.1456 155.727 21.4632 162.371 24.0898C165.847 25.4804 169.324 27.0255 172.182 29.3431C173.882 30.6564 176.586 32.356 175.195 35.8324C173.186 39.4633 169.787 37.4547 168.088 36.5277C154.8 29.1113 140.508 25.0169 125.521 23.3946C121.195 22.931 116.946 22.6993 112.697 22.6993V14.5877C119.495 14.5877 126.294 14.5877 133.324 14.5877C135.023 9.95244 135.409 3.30863 142.98 5.39448C154.723 8.63913 166.465 12.0383 177.822 16.1327C185.47 18.9139 190.646 24.9396 193.968 32.5877C206.019 60.0128 213.281 88.5193 214.672 118.571C214.981 124.751 212.972 129.386 208.878 133.635C199.144 143.756 186.86 148.932 173.65 152.408C157.04 156.812 157.04 156.734 147.229 143.138C147.075 142.983 146.997 142.829 146.843 142.597C145.066 139.12 142.517 138.966 138.654 139.198C130.002 139.816 121.272 140.82 112.62 141.052V133.017C118.877 133.017 125.057 132.554 131.315 131.781Z" fill="white"/>
<path d="M122.044 89.0599C122.122 100.648 131.238 110.845 141.667 111C152.482 111.154 161.753 101.111 161.83 89.0599C161.985 77.2401 153.178 67.2744 142.594 67.0426C131.315 66.7336 122.044 76.6993 122.044 89.0599ZM130.851 88.8282C130.929 81.7208 136.259 75.4633 142.208 75.5405C147.924 75.6178 153.023 81.7208 153.1 88.5964C153.178 95.781 148.156 102.116 142.13 102.193C136.259 102.348 130.774 95.8582 130.851 88.8282Z" fill="white"/>
</svg>
