<svg xmlns="http://www.w3.org/2000/svg" viewBox="0 0 27.43 32.55"><defs><style>.cls-1{fill:#fff;stroke:#fff;stroke-miterlimit:10;stroke-width:0.56px;}</style></defs><g id="Layer_2" data-name="Layer 2"><g id="Layer_1-2" data-name="Layer 1"><path class="cls-1" d="M27.05,10.92a7.82,7.82,0,0,0-1.79-5,7.39,7.39,0,0,0-.07-4.71,1.3,1.3,0,0,0-.74-.88,1.21,1.21,0,0,0-1.07.07l-.3.15a10,10,0,0,0-1.81,1.09A9.08,9.08,0,0,0,20,2.94L20,3a16.09,16.09,0,0,0-9.71,0l-.21-.27A6.87,6.87,0,0,0,6.81.38a1.22,1.22,0,0,0-1.67.8A7.17,7.17,0,0,0,5.07,6,5.59,5.59,0,0,0,3.67,8.5a17.89,17.89,0,0,0-.5,4.82,8.24,8.24,0,0,0,5.54,8.05c.7.26,1.43.45,2.07.62h0c-.16.58-.32,1.18-.5,1.76A3.76,3.76,0,0,1,6.61,23a6.64,6.64,0,0,1-1-1.22,4.28,4.28,0,0,0-3.87-2.24,2,2,0,0,0-.75.18l-.17.06a.81.81,0,0,0-.54.54.8.8,0,0,0,.14.76l.12.15a3.12,3.12,0,0,0,.39.47c.13.13.27.24.39.34a1.7,1.7,0,0,1,.33.3,27,27,0,0,1,1.63,2.62,6.14,6.14,0,0,0,5,3.48,17.07,17.07,0,0,0,1.89,0h0v3a.83.83,0,0,0,.82.83h8.14a.83.83,0,0,0,.83-.83v-.6c0-.53,0-1.07,0-1.6,0-1.2,0-2.44,0-3.66A9.14,9.14,0,0,0,19.53,22c.41-.09.82-.19,1.23-.31a8.48,8.48,0,0,0,6-5.79A13.33,13.33,0,0,0,27.05,10.92Zm-1.85,4.5a6.78,6.78,0,0,1-4.94,4.68c-.44.14-.91.24-1.4.35l-.73.16a.83.83,0,0,0-.51,1.24,6.59,6.59,0,0,1,.79,3.7c0,1.24,0,2.49,0,3.7,0,.45,0,.91,0,1.37H11.92v-3a.83.83,0,0,0-.83-.83l-.89,0a13.41,13.41,0,0,1-1.69,0,4.51,4.51,0,0,1-3.73-2.61,29.77,29.77,0,0,0-1.66-2.68,3.78,3.78,0,0,1,1.16,1.19A7.49,7.49,0,0,0,5.51,24.2,5.39,5.39,0,0,0,11,25.29a1.58,1.58,0,0,0,.91-1c.19-.66.37-1.32.55-2l.18-.67a.82.82,0,0,0-.57-1l-.84-.23a15.4,15.4,0,0,1-1.9-.57,6.56,6.56,0,0,1-4.48-6.5,16.72,16.72,0,0,1,.44-4.38,3.93,3.93,0,0,1,1-1.84,1.45,1.45,0,0,0,.36-1.64,5.39,5.39,0,0,1,0-3.4A5.3,5.3,0,0,1,8.81,3.78c.15.18.29.37.41.52l.12.16a.84.84,0,0,0,.92.28,14.6,14.6,0,0,1,9.74,0,.82.82,0,0,0,.87-.22L21.3,4a7.75,7.75,0,0,1,1-1,8.33,8.33,0,0,1,1.42-.85,5.6,5.6,0,0,1-.07,3.42,1.43,1.43,0,0,0,.26,1.41,6.1,6.1,0,0,1,1.48,4.11A11.9,11.9,0,0,1,25.2,15.42Z"/></g></g></svg>