<svg width="178" height="156" viewBox="0 0 178 156" fill="none" xmlns="http://www.w3.org/2000/svg">
<path d="M100.1 5.2353C111.091 7.9808 121.851 10.7263 132.765 13.3911C133.226 12.5836 133.534 11.8568 133.918 11.2108C137.915 4.18555 145.985 1.19779 153.286 4.1048C160.588 7.0118 164.815 15.0868 163.278 23.0811C161.664 31.1561 154.977 36.6471 147.061 36.4048C139.452 36.1626 132.996 30.1871 131.996 22.1121C131.766 20.1741 130.997 19.5281 129.306 19.1243C121.083 17.1863 112.936 15.0868 104.789 12.9873C104.635 12.9873 104.481 12.9066 104.097 12.9066C100.485 23.8078 96.7955 34.7091 93.0295 45.8526C110.246 46.7409 126.463 51.0206 141.066 60.5491C146.523 55.8656 152.671 54.2506 159.358 56.3501C167.044 58.7726 171.809 64.3444 173.115 72.6616C174.345 80.6559 171.732 87.3582 165.583 92.3647C164.738 93.0107 164.2 93.5759 164.354 94.8679C165.66 105.446 162.74 114.732 156.745 123.13C149.136 133.789 138.914 140.734 127.308 145.498C110.015 152.685 92.0304 154.461 73.6613 151.877C59.5963 149.939 46.3768 145.337 34.4638 136.939C26.24 131.125 19.5534 123.857 15.4799 114.167C12.8668 107.788 12.0213 101.166 12.7899 94.3027C12.8668 93.7374 12.4825 92.8492 12.0213 92.5262C5.25783 87.1159 2.41409 78.3142 4.87354 69.9969C7.25614 61.6796 14.4039 55.8656 22.9351 55.4619C27.3929 55.3004 31.5432 56.5924 35.1555 59.4994C36.1547 60.3069 36.7696 60.2261 37.6918 59.5801C49.9891 51.8281 63.4392 47.7906 77.5811 46.3371C79.9637 46.0949 82.4231 45.8526 84.8057 45.8526C86.1123 45.8526 86.5734 45.2874 86.9577 44.0761C91.1081 31.5598 95.2584 19.1243 99.4856 6.6888C99.7161 6.28505 99.8699 5.8813 100.1 5.2353ZM87.8032 146.629C100.715 146.548 112.628 144.61 124.08 140.088C133.995 136.131 142.91 130.559 149.981 122.081C160.741 109.08 161.433 92.8492 151.672 79.0409C147.214 72.7424 141.45 67.9781 134.917 64.1021C124.08 57.7229 112.321 54.2506 100.024 52.9586C81.2703 51.0206 63.1318 53.4431 45.9925 62.1641C37.8456 66.2824 30.7746 71.8541 25.3177 79.5254C16.9402 91.4764 16.5559 105.365 24.2417 117.72C28.9301 125.23 35.463 130.721 42.8413 135.001C56.9832 143.237 72.4316 146.386 87.8032 146.629ZM157.36 19.8511C157.436 14.1986 153.209 9.59581 147.752 9.51506C142.449 9.35356 137.914 13.9563 137.838 19.6088C137.761 25.3421 142.142 30.0256 147.522 30.1063C152.979 30.0256 157.36 25.5036 157.36 19.8511ZM146.369 64.5866C153.44 70.4814 159.127 77.5066 162.432 86.4699C167.812 82.6747 168.735 73.4691 164.507 67.4936C160.28 61.5989 151.518 60.0646 146.369 64.5866ZM30.9284 64.4251C25.0872 59.8224 16.3254 61.8411 12.2519 68.6241C8.79329 74.3574 10.0999 83.4822 14.8651 86.2277C18.17 77.2644 23.9343 70.3199 30.9284 64.4251Z" fill="white" stroke="white" stroke-width="0.4296" stroke-miterlimit="10"/>
<path d="M76.43 89.8605C76.43 96.805 70.9731 102.538 64.3634 102.538C57.8304 102.538 52.3735 96.805 52.3735 89.9413C52.3735 83.0775 57.8304 77.3442 64.3634 77.3442C70.9731 77.3442 76.43 82.9967 76.43 89.8605Z" fill="white" stroke="white" stroke-width="0.4296" stroke-miterlimit="10"/>
<path d="M102.487 89.9413C102.487 83.0775 107.867 77.3442 114.477 77.3442C121.01 77.3442 126.467 82.9968 126.467 89.9413C126.467 96.8858 121.164 102.538 114.554 102.619C107.867 102.619 102.487 96.9666 102.487 89.9413Z" fill="white" stroke="white" stroke-width="0.4296" stroke-miterlimit="10"/>
<path d="M88.5751 133.954C80.1207 133.47 71.9738 132.097 64.7492 127.171C63.3657 126.202 61.9823 124.991 60.8294 123.779C59.6765 122.568 59.8303 120.792 60.9063 119.58C61.9823 118.369 63.75 118.127 64.9029 119.257C69.7449 124.022 75.663 125.879 81.9653 126.767C90.1891 127.817 98.2592 127.171 105.868 123.699C108.174 122.649 110.249 121.115 112.324 119.58C114.015 118.369 115.706 118.288 116.859 119.742C118.089 121.195 117.935 122.972 116.321 124.506C111.94 128.544 106.79 130.886 101.18 132.097C97.1063 132.985 92.8023 133.308 88.5751 133.954Z" fill="white" stroke="white" stroke-width="0.4296" stroke-miterlimit="10"/>
</svg>
