<svg xmlns="http://www.w3.org/2000/svg" viewBox="0 0 29.76 26.7"><defs><style>.cls-1{fill:#fff;}</style></defs><g id="Layer_2" data-name="Layer 2"><g id="Layer_1-2" data-name="Layer 1"><path class="cls-1" d="M15.87,22.16c-1.06,1-2.12,1.9-3.15,2.87a1.77,1.77,0,0,1-2.78-.38,14.56,14.56,0,0,1-.78-2.06C8.59,20.78,8,19,7.5,17.15a.57.57,0,0,0-.4-.41C5.38,16.17,3.66,15.6,1.94,15A2.71,2.71,0,0,1,.1,13.35a1.86,1.86,0,0,1,.77-2.19,14.93,14.93,0,0,1,2-1L26.29.33A2.9,2.9,0,0,1,28,0a2.13,2.13,0,0,1,1.7,2.53c-.47,2.47-1,4.92-1.43,7.38l-2,10.11c-.31,1.59-.61,3.19-.93,4.79a2.62,2.62,0,0,1-2.66,1.85,2.66,2.66,0,0,1-1.6-.52c-1.65-1.29-3.32-2.55-5-3.83Zm-4.21.72,4.08-3.71,2.86,2.18,3.76,2.89c.47.36.75.26.86-.28.63-3.22,1.25-6.44,1.88-9.65q1-5,2-10.07c.12-.61.23-1.22.37-1.92L2.57,12.8,3,13c1.88.63,3.76,1.24,5.63,1.9a1.29,1.29,0,0,0,1.27-.15Q16.42,10.62,23,6.58a1.54,1.54,0,0,1,.49-.22c.1,0,.31,0,.33.07a.55.55,0,0,1,0,.42,1.12,1.12,0,0,1-.31.34q-5.34,5-10.69,10a1.08,1.08,0,0,0-.34.68c-.1.7-.21,1.41-.32,2.11C12,20.89,11.82,21.84,11.66,22.88Z"/></g></g></svg>