<svg xmlns="http://www.w3.org/2000/svg" viewBox="0 0 36.27 30.35"><defs><style>.cls-1{fill:#fff;}</style></defs><g id="Layer_2" data-name="Layer 2"><g id="Layer_1-2" data-name="Layer 1"><path class="cls-1" d="M6.16,22.61c-.5-.61-1-1.21-1.48-1.85a6.72,6.72,0,0,1-1-2.21,3.36,3.36,0,0,1-.07-.9.52.52,0,0,0-.13-.43A8.88,8.88,0,0,1,1.27,11.4,2.38,2.38,0,0,1,1.73,10a.4.4,0,0,0,.05-.32A8.84,8.84,0,0,1,2.5,2.37,2.32,2.32,0,0,1,6.31,2,16.49,16.49,0,0,0,12.53,6.7a16.13,16.13,0,0,0,2.93.93,8.86,8.86,0,0,1,.83-2.69A8.85,8.85,0,0,1,29.41,1.69a.4.4,0,0,0,.33.05,18.26,18.26,0,0,0,2-.9,2.35,2.35,0,0,1,3.58,2.45.38.38,0,0,0,.09.29,2.34,2.34,0,0,1,.4,3.16,15.78,15.78,0,0,1-2.59,2.94.49.49,0,0,0-.2.43,21.25,21.25,0,0,1-3.52,11.12,19.77,19.77,0,0,1-8,7.07,20.4,20.4,0,0,1-6.72,1.91,20.87,20.87,0,0,1-5.47-.07A20,20,0,0,1,2.6,28q-.77-.4-1.5-.87A2.22,2.22,0,0,1,0,25a2.28,2.28,0,0,1,1.4-2,3.19,3.19,0,0,1,1.73-.13,11,11,0,0,0,3-.2ZM2.44,25.12v0l.08.06a18.19,18.19,0,0,0,8.13,2.72,19.31,19.31,0,0,0,6.06-.43A17.09,17.09,0,0,0,23.85,24a18.61,18.61,0,0,0,5.83-8.46A18.38,18.38,0,0,0,30.7,9a.52.52,0,0,1,.14-.33c.65-.61,1.34-1.18,2-1.81.4-.41.72-.89,1.08-1.34a5.47,5.47,0,0,0-.89.27c-.29.1-.57.2-.86.28s-.61.15-.92.21-.57.09-.86.13A7,7,0,0,0,33,2.83L32.79,3a14.68,14.68,0,0,1-3.13,1.27,1.11,1.11,0,0,1-1.21-.29,6.47,6.47,0,0,0-10,2,6.56,6.56,0,0,0-.54,4.41A18.52,18.52,0,0,1,4.52,3.53a6.43,6.43,0,0,0-.7,4.69,6.55,6.55,0,0,0,2.69,3.95,6.57,6.57,0,0,1-2.92-.81A6.48,6.48,0,0,0,5,15.49a6.82,6.82,0,0,0,3.67,2.34A8.43,8.43,0,0,1,7.3,18c-.47,0-.93,0-1.4-.06a6.06,6.06,0,0,0,1.79,2.77,6.51,6.51,0,0,0,4.24,1.69A13.13,13.13,0,0,1,2.44,25.12Z"/></g></g></svg>